{"title":"Haider (2014) - 1CD - DVDSCR-Rip - Hindi - x264 - MP3 - Mafiakin","uid":11149500,"size":746268403,"categoryP":"video","categoryS":"movies","magnet":"?xt=urn:btih:85a00bc5ad326f1aa333a77a7769bf4617d8e55a&amp;dn=Haider+%282014%29+-+1CD+-+DVDSCR-Rip+-+Hindi+-+x264+-+MP3+-+Mafiakin&amp;tr=udp%3A%2F%2Ftracker.openbittorrent.com%3A80&amp;tr=udp%3A%2F%2Fopen.demonii.com%3A1337&amp;tr=udp%3A%2F%2Ftracker.coppersurfer.tk%3A6969&amp;tr=udp%3A%2F%2Fexodus.desync.com%3A6969","seeders":34,"leechers":8,"uploader":"inovai","files":3,"time":1412311468,"description":"Haider (2014) - 1CD - DVDSCR-Rip - Hindi - x264 - MP3 - Mafiaking - TeamTNT ExClusive\n\nCover:\n &lt;a href=&quot;\nhttp://forum.primetimeshow.in/viewtopic.php?f=7&amp;t=749&quot; rel=&quot;nofollow&quot; target=&quot;_NEW&quot;&gt;\nhttp://forum.primetimeshow.in/viewtopic.php?f=7&amp;t=749&lt;/a&gt;\n\nGENRE: Crime | Drama | Romance\n\nScreenshots:\n &lt;a href=&quot;\nhttp://m.primetimeshow.in/share-8227_542E0D50.html&quot; rel=&quot;nofollow&quot; target=&quot;_NEW&quot;&gt;\nhttp://m.primetimeshow.in/share-8227_542E0D50.html&lt;/a&gt;\n &lt;a href=&quot;\nhttp://m.primetimeshow.in/share-79EC_542D856F.html&quot; rel=&quot;nofollow&quot; target=&quot;_NEW&quot;&gt;\nhttp://m.primetimeshow.in/share-79EC_542D856F.html&lt;/a&gt;\n &lt;a href=&quot;\nhttp://m.primetimeshow.in/share-9E60_542D856F.html&quot; rel=&quot;nofollow&quot; target=&quot;_NEW&quot;&gt;\nhttp://m.primetimeshow.in/share-9E60_542D856F.html&lt;/a&gt;\n &lt;a href=&quot;\nhttp://m.primetimeshow.in/share-1209_542D856F.html&quot; rel=&quot;nofollow&quot; target=&quot;_NEW&quot;&gt;\nhttp://m.primetimeshow.in/share-1209_542D856F.html&lt;/a&gt;\n &lt;a href=&quot;\nhttp://m.primetimeshow.in/share-B6ED_542D856F.html&quot; rel=&quot;nofollow&quot; target=&quot;_NEW&quot;&gt;\nhttp://m.primetimeshow.in/share-B6ED_542D856F.html&lt;/a&gt;\n &lt;a href=&quot;\nhttp://m.primetimeshow.in/share-42AA_542D856F.html&quot; rel=&quot;nofollow&quot; target=&quot;_NEW&quot;&gt;\nhttp://m.primetimeshow.in/share-42AA_542D856F.html&lt;/a&gt;\n &lt;a href=&quot;\nhttp://m.primetimeshow.in/share-037E_542D86E8.html&quot; rel=&quot;nofollow&quot; target=&quot;_NEW&quot;&gt;\nhttp://m.primetimeshow.in/share-037E_542D86E8.html&lt;/a&gt;\n &lt;a href=&quot;\nhttp://m.primetimeshow.in/share-037E_542D86E8.html&quot; rel=&quot;nofollow&quot; target=&quot;_NEW&quot;&gt;\nhttp://m.primetimeshow.in/share-037E_542D86E8.html&lt;/a&gt;\n &lt;a href=&quot;\nhttp://m.primetimeshow.in/share-FED5_542E0D50.html&quot; rel=&quot;nofollow&quot; target=&quot;_NEW&quot;&gt;\nhttp://m.primetimeshow.in/share-FED5_542E0D50.html&lt;/a&gt;\n &lt;a href=&quot;\nhttp://m.primetimeshow.in/share-4DBC_542E0D50.html&quot; rel=&quot;nofollow&quot; target=&quot;_NEW&quot;&gt;\nhttp://m.primetimeshow.in/share-4DBC_542E0D50.html&lt;/a&gt;\n\n\nGeneral\nUnique ID : 170203979225716851386473085109166781584 (0x800C1811FCCB431C802B6692DF11B490)\nComplete name : Haider (2014) - 1CD - DVDSCR-Rip - Hindi - x264 - MP3 - Mafiaking - TeamTNT ExClusive.mkv\nFormat : Matroska\nFormat version : Version 4 / Version 2\nFile size : 709 MiB\nDuration : 2h 40mn\nOverall bit rate : 616 Kbps\nMovie name : Haider (2014) - 1CD - DVDSCR-Rip - Hindi - x264 - MP3 - Mafiaking - TeamTNT ExClusive\nEncoded date : UTC 2014-10-02 17:42:24\nWriting application : mkvmerge v7.0.0 ('Where We Going') 64bit built on Jun 9 2014 15:16:27\nWriting library : libebml v1.3.0 + libmatroska v1.4.1\n\n\nVideo\nID : 1\nFormat : AVC\nFormat/Info : Advanced Video Codec\nFormat profile : &lt;a class=&quot;__cf_email__&quot; href=&quot;/cdn-cgi/l/email-protection&quot; data-cfemail=&quot;e9a1808e81a9a5ddc7d8&quot;&gt;[email&amp;#160;protected]&lt;/a&gt;&lt;script cf-hash='f9e31' type=&quot;text/javascript&quot;&gt;\n/* &lt;![CDATA[ */!function(){try{var t=&quot;currentScript&quot;in document?document.currentScript:function(){for(var t=document.getElementsByTagName(&quot;script&quot;),e=t.length;e--;)if(t[e].getAttribute(&quot;cf-hash&quot;))return t[e]}();if(t&amp;&amp;t.previousSibling){var e,r,n,i,c=t.previousSibling,a=c.getAttribute(&quot;data-cfemail&quot;);if(a){for(e=&quot;&quot;,r=parseInt(a.substr(0,2),16),n=2;a.length-n;n+=2)i=parseInt(a.substr(n,2),16)^r,e+=String.fromCharCode(i);e=document.createTextNode(e),c.parentNode.replaceChild(e,c)}}}catch(u){}}();/* ]]&gt; */&lt;/script&gt;\nFormat settings, CABAC : Yes\nFormat settings, ReFrames : 4 frames\nCodec ID : V_MPEG4/ISO/AVC\nDuration : 2h 40mn\nBit rate : 550 Kbps\nWidth : 640 pixels\nHeight : 272 pixels\nDisplay aspect ratio : 2.35:1\nFrame rate mode : Constant\nFrame rate : 23.976 fps\nColor space : YUV\nChroma subsampling : 4:2:0\nBit depth : 8 bits\nScan type : Progressive\nBits/(Pixel*Frame) : 0.132\nStream size : 621 MiB (88%)\nTitle : Mafiaking\nLanguage : Hindi\nDefault : Yes\nForced : No\n\n\nAudio\nID : 2\nFormat : MPEG Audio\nFormat version : Version 2\nFormat profile : Layer 3\nMode : Joint stereo\nMode extension : MS Stereo\nCodec ID : A_MPEG/L3\nCodec ID/Hint : MP3\nDuration : 2h 40mn\nBit rate mode : Constant\nBit rate : 64.0 Kbps\nChannel(s) : 2 channels\nSampling rate : 24.0 KHz\nCompression mode : Lossy\nStream size : 73.7 MiB (10%)\nTitle : Mafiaking\nWriting library : LAME3.99r\nLanguage : Hindi\nDefault : Yes\nForced : No\n\nSAMPLE WITH IN TORRENT\n\nThanks to Mafiaking - TeamTNT !!\n\nSeed n Enjoy!!","torrent":{"xt":"urn:btih:85a00bc5ad326f1aa333a77a7769bf4617d8e55a","amp;dn":"Haider+%282014%29+-+1CD+-+DVDSCR-Rip+-+Hindi+-+x264+-+MP3+-+Mafiakin","amp;tr":["udp%3A%2F%2Ftracker.openbittorrent.com%3A80","udp%3A%2F%2Fopen.demonii.com%3A1337","udp%3A%2F%2Ftracker.coppersurfer.tk%3A6969","udp%3A%2F%2Fexodus.desync.com%3A6969"],"infoHash":"85a00bc5ad326f1aa333a77a7769bf4617d8e55a","infoHashBuffer":{"type":"Buffer","data":[133,160,11,197,173,50,111,26,163,51,167,122,119,105,191,70,23,216,229,90]},"announce":[],"urlList":[]}}